<svg xmlns="http://www.w3.org/2000/svg" viewBox="0 0 24 24" role="img" aria-label="Developer Portal">
<g fill="#000000" stroke="none" transform="translate(5.632 0.500) scale(0.203348)">
<g transform="translate(-30.343371 123.10633) scale(0.1 -0.1)">
<path d="M710 1214 c-19 -8 -49 -28 -65 -44 -21 -21 -39 -29 -59 -27 -25 2 -32 -5 -57 -48 -15 -27 -28 -60 -28 -72 -1 -12 -10 -40 -22 -63 -25 -48 -19 -107 16 -148 18 -21 20 -30 12 -44 -9 -13 -7 -21 7 -36 16 -18 16 -23 2 -56 -25 -61 -57 -36 -48 39 2 25 0 45 -7 49 -6 4 -11 26 -11 48 0 24 -7 49 -16 59 -12 14 -13 21 -3 37 8 12 9 26 4 38 -5 11 -9 28 -9 39 -1 22 -31 31 -71 21 -26 -7 -40 -73 -23 -111 8 -17 6 -28 -6 -47 -20 -31 -30 -172 -15 -209 6 -15 21 -31 35 -37 13 -7 24 -18 24 -25 0 -30 89 -93 117 -83 13 5 14 0 9 -29 -4 -19 -3 -41 1 -48 4 -6 8 -46 8 -87 1 -41 5 -83 9 -92 7 -15 3 -18 -17 -18 -50 0 -74 -52 -39 -82 22 -20 68 -21 110 -2 33 15 33 16 27 69 -4 29 -4 67 0 84 l7 32 28 -44 c15 -25 33 -48 39 -51 6 -4 11 -27 11 -50 0 -51 27 -76 83 -76 37 0 71 28 63 51 -3 8 8 22 27 34 58 36 96 163 66 223 -24 49 -51 73 -73 66 -20 -6 -20 -5 2 18 39 43 39 84 -2 177 -43 98 -42 92 -10 130 18 22 23 35 16 48 -5 10 -7 48 -5 85 2 38 -1 70 -7 73 -6 3 -10 21 -10 40 0 22 -6 37 -17 44 -16 8 -16 14 -4 60 20 79 -15 102 -99 65z m67 -10 c-3 -3 -12 -4 -19 -1 -8 3 -5 6 6 6 11 1 17 -2 13 -5z m-64 -161 c35 -39 23 -143 -17 -143 -41 0 -62 73 -30 105 22 21 44 3 45 -39 1 -25 3 -26 6 -7 8 42 -5 71 -32 71 -51 0 -61 -104 -13 -142 21 -18 21 -19 3 -16 -12 2 -28 19 -39 41 -39 80 25 187 77 130z m-301 -124 c-16 -15 -49 -18 -65 -7 -15 11 -11 13 28 13 24 0 41 -2 37 -6z m-42 -38 c0 -5 9 -7 20 -4 27 7 25 -5 -2 -18 -20 -8 -19 -9 9 -5 40 6 43 -2 43 -109 0 -73 -3 -86 -19 -95 -26 -14 -64 -13 -55 1 6 11 -10 78 -27 111 -12 24 -11 75 1 83 6 3 10 15 10 26 0 10 5 19 10 19 6 0 10 -4 10 -9z m426 -453 c-25 -35 -20 -94 9 -123 13 -14 20 -25 16 -25 -20 0 -59 54 -64 88 -4 30 -1 41 20 60 31 28 39 28 19 0z"/>
<path d="M672 988 c-16 -16 -15 -43 3 -58 21 -17 32 -5 27 30 -5 35 -14 44 -30 28z"/>
</g></g></svg>